<svg width="180" height="180" viewBox="0 0 180 180" fill="none" xmlns="http://www.w3.org/2000/svg">
  <defs>
    <linearGradient id="ccGrad" x1="180" y1="0" x2="0" y2="180" gradientUnits="userSpaceOnUse">
      <stop stop-color="#0BA5EC"/>
      <stop offset="1" stop-color="#4F50FF"/>
    </linearGradient>
  </defs>
  <g fill="url(#ccGrad)">
    <path d="M91.5706 38.8241C107.182 39.3027 120.946 46.7154 129.999 58.0155L140 50.0185C128.266 35.3768 110.229 26 90 26C69.7712 26 51.7341 35.3768 40 50.0185L49.9992 58.0142C59.7223 45.8849 74.8313 38.3108 91.5706 38.8241Z"/>
    <path d="M88.4294 141.176C72.8183 140.697 59.0539 133.285 50.0008 121.984L40 129.981C51.7341 144.623 69.7712 154 90 154C110.229 154 128.266 144.623 140 129.981L130.001 121.986C120.278 134.115 105.169 141.689 88.4294 141.176Z"/>
    <path d="M109.999 74.0083L119.998 66.0124C112.958 57.2274 102.137 51.6 90 51.6C77.8627 51.6 67.0421 57.2274 60.0016 66.0124C54.7344 72.5848 51.5822 80.9239 51.5822 90C51.5822 99.0761 54.7344 107.415 60.0016 113.988C67.0421 122.773 77.8627 128.4 90 128.4C102.137 128.4 112.958 122.773 119.998 113.988L109.999 105.992C105.305 111.848 98.0915 115.6 90 115.6C81.9085 115.6 74.6947 111.848 70.0011 105.992C66.4896 101.61 64.3881 96.0507 64.3881 90C64.3881 83.9492 66.4896 78.3899 70.0011 74.0083C74.6947 68.1516 81.9085 64.4 90 64.4C98.0914 64.4 105.305 68.1516 109.999 74.0083Z"/>
    <path d="M90 79.6448C86.727 79.6448 83.809 81.1623 81.9105 83.5313C80.4901 85.3037 79.64 87.5524 79.64 90C79.64 92.4475 80.4901 94.6963 81.9105 96.4686C83.809 98.8376 86.727 100.355 90 100.355C93.273 100.355 96.191 98.8376 98.0896 96.4686C99.51 94.6962 100.36 92.4475 100.36 90C100.36 87.5524 99.5099 85.3037 98.0896 83.5313C96.191 81.1623 93.273 79.6448 90 79.6448Z"/>
  </g>
</svg>
